<svg width="800" height="800" viewBox="0 0 800 800" fill="none" xmlns="http://www.w3.org/2000/svg">
<path d="M502.175 354.145C518.962 308.401 532.095 270.663 541.528 240.839C550.893 211.105 555.644 192.808 555.644 185.947C555.644 178.742 554.045 173.047 550.847 169.067C547.764 165.088 543.447 163.029 537.897 163.029C530.816 163.029 523.508 168.861 516.427 180.526C509.118 192.191 501.124 211.037 492.217 236.95L454.531 345.819L502.038 354.099H501.81V354.145H502.175ZM452.087 455.581C441.261 454.894 431.005 453.751 421.39 452.15C411.797 450.32 402.432 447.804 393.616 444.602C397.659 452.607 401.268 460.612 404.397 468.617C407.549 476.622 410.107 484.399 412.162 492.404C418.101 484.856 424.496 477.995 431.12 471.819C437.789 465.644 444.824 460.155 452.018 455.352L452.087 455.581ZM409.559 341.222L368.903 223.662C358.305 193.7 350.174 174.259 344.35 164.882C338.64 155.733 332.359 151.159 325.576 151.159C320.322 151.159 316.051 152.989 312.785 157.105C309.496 161.222 307.897 166.483 307.897 173.116C307.897 184.551 312.237 204.678 320.916 233.497C329.596 262.086 342.843 299.596 360.43 346.254C361.8 343.509 364.084 341.451 366.825 340.307C369.566 339.164 373.22 338.478 378.016 338.478C379.387 338.478 382.356 338.706 386.924 338.706C391.264 339.164 398.801 339.621 409.079 340.765L409.559 341.222ZM372.603 523.281C376.897 523.281 380.826 521.222 384.252 517.334C387.678 513.217 389.596 509.1 389.596 504.755C389.596 499.952 386.17 488.744 379.273 471.362C372.421 453.98 363.741 436.826 353.463 419.901C345.926 407.321 338.503 397.715 331.309 391.311C323.908 384.907 317.033 381.705 310.524 381.705C305.271 381.705 299.469 384.907 293.006 391.769C286.611 398.401 283.413 404.577 283.413 410.295C283.413 416.241 286.611 425.39 292.846 437.283C299.127 449.405 307.578 462.213 318.061 475.708C329.139 490.574 339.531 502.01 349.352 510.244C359.128 518.478 366.939 522.594 372.649 522.594H372.603V523.281ZM259.659 514.132C263.222 518.478 268.11 524.653 274.414 532.887C290.927 555.758 306.276 567.194 320.322 567.194C325.119 567.194 329.39 565.593 333.181 562.62C336.927 559.418 338.823 556.445 338.823 553.014C338.823 549.126 336.31 542.95 331.286 534.03C326.215 525.11 319.317 515.276 310.57 504.297C300.52 491.489 292.184 482.112 285.491 476.165C278.913 470.218 273.5 467.245 269.572 467.245C260.893 467.245 252.67 472.048 245.361 481.425C238.053 490.574 234.398 502.01 234.398 514.818C234.398 525.11 237.139 536.546 242.392 549.354C247.645 561.934 254.954 574.742 264.775 587.55C279.621 607.448 298.122 622.544 320.048 633.293C341.975 643.814 366.414 649.075 392.908 649.075C441.786 649.075 482.898 630.777 515.788 594.183C548.906 557.588 565.351 511.845 565.351 456.724C565.351 439.799 564.209 426.305 561.696 416.47C559.184 406.635 555.073 399.316 549.363 394.742C539.085 386.051 518.985 378.503 489.293 371.642C459.601 364.78 428.539 361.349 396.106 361.349C387.198 361.349 380.575 362.95 376.92 365.924C373.266 368.897 371.439 374.157 371.439 381.316C371.439 398.47 381.031 410.821 400.217 418.506C419.403 426.282 450.237 430.17 492.948 430.17H508.387C511.814 430.17 514.783 431.542 516.838 434.15C518.894 436.666 520.264 440.554 520.95 446.043C516.61 449.931 507.931 454.506 494.592 459.766C481.116 464.798 471.067 470.058 463.986 474.976C448.912 486.046 436.807 499.22 427.671 514.406C418.535 529.502 413.967 543.911 413.967 557.474C413.967 565.708 415.931 575.771 419.859 587.436C423.742 599.1 425.798 606.259 425.798 609.164V611.68L425.113 615.11C414.149 614.424 405.47 607.951 399.075 595.669C392.52 583.547 389.482 567.309 389.482 546.953V543.522C387.427 545.237 385.462 546.61 383.544 547.296C381.579 548.073 379.478 548.439 377.377 548.439C375.093 548.439 372.855 548.302 370.753 547.982C368.698 547.616 366.642 547.067 364.13 546.267C364.815 549.011 365.432 551.756 365.866 554.34C366.094 557.085 366.322 559.143 366.322 560.516C366.322 569.802 362.668 577.898 355.359 584.531C348.05 591.095 339.371 594.366 329.321 594.366C313.562 594.366 297.414 586.589 281.129 571.265C264.798 555.85 256.69 540.617 256.69 525.865C256.69 523.12 257.033 520.605 257.604 518.478C258.175 516.35 259.317 514.589 260.801 512.988L259.659 514.132ZM529.332 360.206C551.829 364.323 567.817 373.929 577.068 388.795C586.432 403.433 591 426.762 591 458.783C591 522.137 572.088 573.827 534.083 614.081C496.008 654.335 447.359 674.691 388.203 674.691C364.838 674.691 342.158 670.345 320.231 661.883C298.076 653.42 279.347 641.527 263.359 626.66C245.316 609.964 231.612 592.582 222.704 574.056C213.568 555.53 209 536.546 209 517.334C209 495.606 213.568 478.91 222.704 467.245C231.84 455.352 246.686 447.347 266.785 443.001C262.903 434.081 260.162 426.762 258.563 420.587C256.736 414.412 255.822 409.837 255.822 406.635C255.822 395.199 261.761 383.535 273.637 371.87C285.514 359.977 296.706 354.03 307.212 354.03C311.552 354.03 316.348 354.717 321.373 356.546C326.398 358.147 332.108 360.892 338.503 364.551C320.003 310.803 305.842 268.49 297.163 238.757C288.255 208.795 283.915 188.44 283.915 177.004C283.915 161.451 287.798 148.872 295.792 139.723C304.015 130.574 314.978 126 328.682 126C352.207 126 382.128 178.834 418.443 284.34C424.839 302.409 429.407 316.361 432.833 326.196L444.481 292.963C480.797 188.897 511.859 136.75 538.125 136.75C550.916 136.75 561.194 141.095 568.731 149.787C576.268 158.546 580.151 170.074 580.151 184.62C580.151 195.598 575.811 215.725 567.361 245.23C558.978 274.506 546.348 312.93 529.218 360.503" fill="#304D7E"/>
</svg>
